# xmcd CD database file
#
# Track frame offsets:
#	150
#	10113
#	18490
#	28585
#	43415
#	51495
#	60810
#	74273
#	88065
#	96923
#	107373
#	115420
#	127603
#	140360
#	157235
#	169490
#	182158
#	195345
#
# Disc length: 2733 seconds
#
# Revision: 1
# Processed by: cddbd v1.4PL0 Copyright (c) Steve Scherf et al.
# Submitted via: CDex 1.50Beta7
#
DISCID=f30aab12
DTITLE=Willie Nelson - Things To Remember
DYEAR=1900
DGENRE=Country
TTITLE0=Broken Promises
TTITLE1=Slow Down Old World
TTITLE2=Healing Hands Of Time
TTITLE3=And So Will You My Love
TTITLE4=Things To Remember
TTITLE5=One Step Beyond
TTITLE6=If You Can't Undo The Wrong Undo The Right
TTITLE7=Home Is Where You're Happy
TTITLE8=Why Are You Picking On Me?
TTITLE9=I Feel Sorry For Him
TTITLE10=You Wouldn't Cross The Streed To Say Goodbye
TTITLE11=I Can't Find The Time
TTITLE12=Any Old Arms Won't Do
TTITLE13=I Let My Mind Wonder
TTITLE14=Shelter Of My Arms
TTITLE15=I Just Don't Understand
TTITLE16=You'll Always Have Someone
TTITLE17=I Didn't Sleep A Wink
EXTD=
EXTT0=
EXTT1=
EXTT2=
EXTT3=
EXTT4=
EXTT5=
EXTT6=
EXTT7=
EXTT8=
EXTT9=
EXTT10=
EXTT11=
EXTT12=
EXTT13=
EXTT14=
EXTT15=
EXTT16=
EXTT17=
PLAYORDER=
